HIERARCHY
ROOT Hips
{
    OFFSET 0.000000 0.000000 0.000000
    CHANNELS 6 Xposition Yposition Zposition Zrotation Xrotation Yrotation
    JOINT Spine
    {
        OFFSET -0.000000 7.587367 0.000000
        CHANNELS 3 Zrotation Xrotation Yrotation
        JOINT Spine1
        {
            OFFSET -0.000000 21.665461 0.000000
            CHANNELS 3 Zrotation Xrotation Yrotation
            JOINT Neck
            {
                OFFSET -0.000000 21.576487 1.961499
                CHANNELS 3 Zrotation Xrotation Yrotation
                JOINT Head
                {
                    OFFSET -0.000000 12.954041 -1.850577
                    CHANNELS 3 Zrotation Xrotation Yrotation
                    End Site
                    {
                        OFFSET -0.000000 23.132217 0.000000
                    }
                }
            }
            JOINT LeftShoulder
            {
                OFFSET 3.736380 18.865139 -0.237605
                CHANNELS 3 Zrotation Xrotation Yrotation
                JOINT LeftArm
                {
                    OFFSET 13.340759 0.000000 0.000000
                    CHANNELS 3 Zrotation Xrotation Yrotation
                    JOINT LeftForeArm
                    {
                        OFFSET 34.199600 0.000000 0.000000
                        CHANNELS 3 Zrotation Xrotation Yrotation
                        JOINT LeftHand
                        {
                            OFFSET 18.347805 0.000000 0.000000
                            CHANNELS 3 Zrotation Xrotation Yrotation
                            End Site
                            {
                                OFFSET 13.879331 0.000000 0.000000
                            }
                        }
                    }
                }
            }
            JOINT RightShoulder
            {
                OFFSET -3.644239 18.865139 -0.237605
                CHANNELS 3 Zrotation Xrotation Yrotation
                JOINT RightArm
                {
                    OFFSET -13.340759 0.000000 0.000000
                    CHANNELS 3 Zrotation Xrotation Yrotation
                    JOINT RightForeArm
                    {
                        OFFSET -34.199600 0.000000 0.000000
                        CHANNELS 3 Zrotation Xrotation Yrotation
                        JOINT RightHand
                        {
                            OFFSET -18.347805 0.000000 0.000000
                            CHANNELS 3 Zrotation Xrotation Yrotation
                            End Site
                            {
                                OFFSET -13.879331 0.000000 0.000000
                            }
                        }
                    }
                }
            }
        }
    }
    JOINT LeftUpLeg
    {
        OFFSET 9.252887 0.000000 0.000000
        CHANNELS 3 Zrotation Xrotation Yrotation
        JOINT LeftLeg
        {
            OFFSET -0.000000 -37.275230 0.000000
            CHANNELS 3 Zrotation Xrotation Yrotation
            JOINT LeftFoot
            {
                OFFSET -0.000000 -38.159729 0.000000
                CHANNELS 3 Zrotation Xrotation Yrotation
                JOINT LeftToeBase
                {
                    OFFSET -0.000000 -6.014376 13.879331
                    CHANNELS 3 Zrotation Xrotation Yrotation
                    End Site
                    {
                        OFFSET -0.000000 0.000000 3.701154
                    }
                }
            }
        }
    }
    JOINT RightUpLeg
    {
        OFFSET -9.252887 0.000000 0.000000
        CHANNELS 3 Zrotation Xrotation Yrotation
        JOINT RightLeg
        {
            OFFSET -0.000000 -37.275230 0.000000
            CHANNELS 3 Zrotation Xrotation Yrotation
            JOINT RightFoot
            {
                OFFSET -0.000000 -38.159729 0.000000
                CHANNELS 3 Zrotation Xrotation Yrotation
                JOINT RightToeBase
                {
                    OFFSET -0.000000 -6.014376 13.879331
                    CHANNELS 3 Zrotation Xrotation Yrotation
                    End Site
                    {
                        OFFSET -0.000000 0.000000 3.701154
                    }
                }
            }
        }
    }
}
MOTION
Frames:    5
Frame Time:    0.010000
5.787073    74.995331    -17.000774    6.770610    -1.779133    -40.493290    -9.538752    0.518098    -1.115059    0.620022    14.175614    -1.235375    16.257368    0.746642    21.800653    -28.236343    3.135223    17.261417    18.011545    6.825008    7.967011    -49.650726    -6.099657    -58.589027    41.749207    -33.359894    -83.873283    -5.490640    4.096146    28.453718    -7.561441    3.719983    -12.845686    38.226799    15.370846    33.941761    -4.655741    -21.091896    98.309265    6.340646    -17.005411    -19.108374    15.196133    -25.709745    8.489083    -11.939442    33.689632    9.847109    -13.174156    -9.950640    16.101107    0.000000    0.000000    0.000000    -39.350754    -6.029759    -10.342954    10.537040    29.175528    -0.710455    36.789371    -12.977528    -32.120445    0.000000    0.000000    0.000000    
5.755170    75.087318    -17.265902    6.906348    -0.985508    -38.377472    -9.721594    0.439574    -1.076674    1.057216    14.143044    -1.245161    15.885655    0.561592    21.876772    -27.918282    2.251908    17.188910    17.948320    6.143415    8.253719    -49.359657    -6.276708    -59.809956    41.650215    -33.087051    -84.140083    -5.332687    4.564136    28.248730    -8.150646    3.895707    -12.716754    38.011215    15.740722    31.143446    -4.971796    -23.078722    90.975861    9.448399    -19.636366    -16.431742    14.808603    -27.198198    7.053424    -11.473654    33.489925    9.529920    -13.525257    -8.839876    16.008713    0.000000    0.000000    0.000000    -38.959793    -5.606447    -10.659153    10.368225    29.863304    0.018206    37.114025    -12.935885    -32.423595    0.000000    0.000000    0.000000    
5.672440    75.209740    -17.529785    6.877964    -0.125152    -36.213200    -9.704434    0.542125    -0.879105    1.449298    13.580629    -1.097661    15.270432    0.828845    21.609138    -27.358551    1.281162    16.868055    17.595730    5.851213    8.286749    -48.604027    -5.950151    -61.365322    42.016838    -33.141285    -84.338364    -5.223558    5.163400    27.202377    -9.049872    4.294232    -12.167747    38.607082    15.250912    28.084129    -5.268254    -23.225363    83.657318    9.797951    -19.905735    -13.372965    14.532765    -28.576300    5.730436    -10.957782    33.221523    8.891373    -13.857400    -7.699750    16.074036    0.000000    0.000000    0.000000    -38.202110    -4.923737    -10.103621    10.338861    30.044502    -0.049340    38.066036    -12.997040    -32.624622    0.000000    0.000000    0.000000    
5.541345    75.378647    -17.803946    6.728621    0.823144    -33.832012    -9.546612    0.514135    -0.644015    1.785643    13.508345    -0.898508    14.429736    0.227878    21.456944    -26.356724    0.746634    16.757360    17.169943    4.636895    8.675763    -47.910568    -5.148844    -62.803436    41.624279    -32.929390    -85.839500    -5.006406    6.246393    26.141953    -10.190834    4.236833    -11.773787    39.189453    15.107440    25.211935    -6.810522    -23.182659    75.724213    10.118601    -19.061646    -9.983741    14.252350    -29.951372    4.328243    -10.379981    32.816170    8.182507    -14.234628    -6.357278    16.114458    0.000000    0.000000    0.000000    -37.104687    -3.930798    -8.946957    10.491604    29.729572    -0.853132    39.366520    -13.187661    -32.766590    0.000000    0.000000    0.000000    
5.392196    75.581894    -18.043655    6.403615    1.748154    -31.362080    -8.406203    1.782002    -0.481826    0.493896    10.503499    -0.658138    14.366033    2.073350    21.115896    -25.647873    -0.310745    16.505816    16.804834    5.177321    8.296748    -46.121712    -3.535134    -63.794388    44.237267    -34.861225    -85.196678    -9.849992    5.636031    24.275478    -10.219205    5.509504    -9.807944    39.998085    13.979819    21.717041    -8.453635    -22.423967    68.019417    11.052489    -17.642731    -6.491316    13.947001    -31.164547    2.960579    -9.661036    32.390324    7.271748    -14.970037    -5.253633    16.401827    0.000000    0.000000    0.000000    -35.748405    -2.682528    -7.447464    10.492525    29.057449    -1.412857    41.051693    -13.598162    -33.220322    0.000000    0.000000    0.000000    
